<?xml version="1.0" encoding="UTF-8" standalone="no"?>
<!-- Created with Inkscape (http://www.inkscape.org/) -->

<svg
   xmlns:dc="http://purl.org/dc/elements/1.1/"
   xmlns:cc="http://creativecommons.org/ns#"
   xmlns:rdf="http://www.w3.org/1999/02/22-rdf-syntax-ns#"
   xmlns:svg="http://www.w3.org/2000/svg"
   xmlns="http://www.w3.org/2000/svg"
   xmlns:sodipodi="http://sodipodi.sourceforge.net/DTD/sodipodi-0.dtd"
   xmlns:inkscape="http://www.inkscape.org/namespaces/inkscape"
   width="210mm"
   height="297mm"
   viewBox="0 0 744.09448819 1052.3622047"
   id="svg2"
   version="1.1"
   inkscape:version="0.91 r13725"
   sodipodi:docname="mouseT_CLK_G.svg"
   inkscape:export-filename="C:\opt\workspace-neon\whatido\src\main\resources\images\large\mouseVideL.png"
   inkscape:export-xdpi="32"
   inkscape:export-ydpi="32">
  <defs
     id="defs4" />
  <sodipodi:namedview
     id="base"
     pagecolor="#ffffff"
     bordercolor="#666666"
     borderopacity="1.0"
     inkscape:pageopacity="0.0"
     inkscape:pageshadow="2"
     inkscape:zoom="4.6943678"
     inkscape:cx="376.19907"
     inkscape:cy="454.33736"
     inkscape:document-units="px"
     inkscape:current-layer="layer1"
     showgrid="false"
     inkscape:window-width="1366"
     inkscape:window-height="745"
     inkscape:window-x="-8"
     inkscape:window-y="-8"
     inkscape:window-maximized="1" />
  <metadata
     id="metadata7">
    <rdf:RDF>
      <cc:Work
         rdf:about="">
        <dc:format>image/svg+xml</dc:format>
        <dc:type
           rdf:resource="http://purl.org/dc/dcmitype/StillImage" />
        <dc:title></dc:title>
      </cc:Work>
    </rdf:RDF>
  </metadata>
  <g
     inkscape:label="Calque 1"
     inkscape:groupmode="layer"
     id="layer1">
    <path
       style="opacity:0.85220056;fill:#000000;fill-opacity:0;stroke:#000000;stroke-width:1.36604464;stroke-miterlimit:4;stroke-dasharray:none;stroke-opacity:1"
       d="m 423.39804,600.46516 c 0,11.13929 -4.66237,13.96347 -10.87842,13.96347 -6.21606,0 -11.6319,-2.82418 -11.6319,-13.96347 0,-5.56964 1.25979,-10.61199 3.29656,-14.26195 2.03678,-3.64995 4.85058,-5.90749 7.9586,-5.90749 6.21606,0 11.25516,9.03017 11.25516,20.16944 z"
       id="path4146"
       inkscape:connector-curvature="0"
       sodipodi:nodetypes="ssssss"
       inkscape:export-xdpi="89.900002"
       inkscape:export-ydpi="89.900002" />
    <rect
       style="opacity:0.85220056;fill:#000000;fill-opacity:0.01376145;stroke:#000000;stroke-width:0.28108725;stroke-miterlimit:4;stroke-dasharray:none;stroke-opacity:1"
       id="rect4149"
       width="2.6371903"
       height="11.020974"
       x="410.77722"
       y="583.61267"
       inkscape:export-xdpi="89.900002"
       inkscape:export-ydpi="89.900002" />
    <path
       style="fill:#0000ff;fill-opacity:0.75688076;fill-rule:evenodd;stroke:#000000;stroke-width:0.971;stroke-linecap:butt;stroke-linejoin:miter;stroke-miterlimit:4;stroke-dasharray:none;stroke-opacity:1"
       d="m 411.76616,580.83068 c 0,0 -1.46234,0.15836 -2.11916,0.51288 -0.67975,0.36688 -0.45644,0.14729 -1.59547,1.04783 -0.74731,0.59083 -1.52069,1.34516 -2.0445,2.06439 -0.61652,0.84656 -1.07145,1.54928 -1.67349,2.71928 -0.60201,1.16999 -1.09247,2.52375 -1.58729,4.1156 -0.49482,1.59186 -1.08883,5.48301 -1.08883,5.48301 l 10.0835,0.0312 0.0274,-2.10207 -1.08551,0.0377 0,-11.12804 1.06938,-0.0691 z"
       id="path4151"
       inkscape:connector-curvature="0"
       sodipodi:nodetypes="csssssccccccc"
       inkscape:export-xdpi="89.900002"
       inkscape:export-ydpi="89.900002" />
    <path
       style="fill:#000000;fill-opacity:0.01376145;fill-rule:evenodd;stroke:#000000;stroke-width:0.81629503;stroke-linecap:butt;stroke-linejoin:miter;stroke-miterlimit:4;stroke-dasharray:none;stroke-opacity:1"
       d="m 412.39592,580.86241 c 0,0 1.46379,0.0472 2.08585,0.47502 0,0 1.07926,0.3638 2.16157,1.35048 1.38699,1.26447 1.2543,1.19386 1.77809,1.91308 0.61653,0.84657 0.76034,1.12017 1.36236,2.29017 0.60203,1.16999 1.32559,3.03501 1.82041,4.62687 0.49482,1.59185 1.00036,5.24954 1.00036,5.24954 l -10.2833,0.10694 0.0391,-2.17775 1.05221,0.0377 0,-11.12803 -1.03608,-0.10694 z"
       id="path4151-5"
       inkscape:connector-curvature="0"
       sodipodi:nodetypes="csssssccccccc"
       inkscape:export-xdpi="89.900002"
       inkscape:export-ydpi="89.900002" />
  </g>
</svg>
