<?xml version="1.0" encoding="UTF-8" standalone="no"?>
<!-- Created with Inkscape (http://www.inkscape.org/) -->

<svg
   xmlns:dc="http://purl.org/dc/elements/1.1/"
   xmlns:cc="http://creativecommons.org/ns#"
   xmlns:rdf="http://www.w3.org/1999/02/22-rdf-syntax-ns#"
   xmlns:svg="http://www.w3.org/2000/svg"
   xmlns="http://www.w3.org/2000/svg"
   xmlns:sodipodi="http://sodipodi.sourceforge.net/DTD/sodipodi-0.dtd"
   xmlns:inkscape="http://www.inkscape.org/namespaces/inkscape"
   width="210mm"
   height="297mm"
   viewBox="0 0 744.09448819 1052.3622047"
   id="svg2"
   version="1.1"
   inkscape:version="0.91 r13725"
   sodipodi:docname="mouseS_CLK_ROUL.svg"
   inkscape:export-filename="C:\opt\workspace-neon\whatido\src\main\resources\images\large\mouseVideL.png"
   inkscape:export-xdpi="32"
   inkscape:export-ydpi="32">
  <defs
     id="defs4" />
  <sodipodi:namedview
     id="base"
     pagecolor="#ffffff"
     bordercolor="#666666"
     borderopacity="1.0"
     inkscape:pageopacity="0.0"
     inkscape:pageshadow="2"
     inkscape:zoom="4.37"
     inkscape:cx="441.39449"
     inkscape:cy="444.72509"
     inkscape:document-units="px"
     inkscape:current-layer="layer1"
     showgrid="false"
     inkscape:window-width="1366"
     inkscape:window-height="745"
     inkscape:window-x="-8"
     inkscape:window-y="-8"
     inkscape:window-maximized="1" />
  <metadata
     id="metadata7">
    <rdf:RDF>
      <cc:Work
         rdf:about="">
        <dc:format>image/svg+xml</dc:format>
        <dc:type
           rdf:resource="http://purl.org/dc/dcmitype/StillImage" />
        <dc:title></dc:title>
      </cc:Work>
    </rdf:RDF>
  </metadata>
  <g
     inkscape:label="Calque 1"
     inkscape:groupmode="layer"
     id="layer1">
    <path
       style="opacity:0.85220056;fill:#000000;fill-opacity:0;stroke:#000000;stroke-width:3.087;stroke-miterlimit:4;stroke-dasharray:none;stroke-opacity:1"
       d="m 451.64956,608.25399 c 0,39.09995 -16.36535,49.01311 -38.18428,49.01311 -21.81894,0 -40.82908,-9.91316 -40.82908,-49.01311 0,-19.54998 4.42194,-37.24917 11.57124,-50.06085 7.1493,-12.81169 17.02597,-20.73589 27.93544,-20.73589 21.81893,0 39.50668,31.69678 39.50668,70.79674 z"
       id="path4146"
       inkscape:connector-curvature="0"
       sodipodi:nodetypes="ssssss"
       inkscape:export-xdpi="90"
       inkscape:export-ydpi="90" />
    <rect
       style="opacity:0.85220056;fill:#ff0000;fill-opacity:1;stroke:#000000;stroke-width:0.987;stroke-miterlimit:4;stroke-dasharray:none;stroke-opacity:1"
       id="rect4149"
       width="9.256794"
       height="38.684685"
       x="407.34918"
       y="549.10022"
       inkscape:export-xdpi="90"
       inkscape:export-ydpi="90" />
    <path
       style="fill:#000000;fill-opacity:0.01376145;fill-rule:evenodd;stroke:#000000;stroke-width:3.033;stroke-linecap:butt;stroke-linejoin:miter;stroke-miterlimit:4;stroke-dasharray:none;stroke-opacity:1"
       d="m 410.82054,539.33506 c 0,0 -5.13293,0.55577 -7.43843,1.80019 -2.38594,1.28783 -1.60218,0.51704 -5.60027,3.67801 -2.62314,2.0739 -5.33779,4.72166 -7.17637,7.24623 -2.16405,2.97151 -3.76093,5.43813 -5.87408,9.54491 -2.11316,4.1068 -3.83472,8.85859 -5.57159,14.44618 -1.73687,5.58758 -3.82189,19.2459 -3.82189,19.2459 l 35.39404,0.10978 0.0966,-7.3785 -3.81021,0.13278 0,-39.06048 3.75362,-0.24257 z"
       id="path4151"
       inkscape:connector-curvature="0"
       sodipodi:nodetypes="csssssccccccc"
       inkscape:export-xdpi="90"
       inkscape:export-ydpi="90" />
    <path
       style="fill:#000000;fill-opacity:0.01376145;fill-rule:evenodd;stroke:#000000;stroke-width:3.133;stroke-linecap:butt;stroke-linejoin:miter;stroke-miterlimit:4;stroke-dasharray:none;stroke-opacity:1"
       d="m 413.03108,539.44641 c 0,0 5.13802,0.16565 7.32155,1.66739 0,0 3.7883,1.27692 7.5873,4.74031 4.86849,4.43841 4.40271,4.19052 6.24129,6.71509 2.16406,2.9715 2.66886,3.93189 4.78201,8.03868 2.11316,4.1068 4.65292,10.65318 6.38978,16.24076 1.73687,5.58759 3.51134,18.4264 3.51134,18.4264 l -36.09534,0.37536 0.13714,-7.64408 3.69331,0.13278 0,-39.06049 -3.63672,-0.37535 z"
       id="path4151-5"
       inkscape:connector-curvature="0"
       sodipodi:nodetypes="csssssccccccc"
       inkscape:export-xdpi="90"
       inkscape:export-ydpi="90" />
  </g>
</svg>
